#Comment line ignore any data following # character 
#Hierarchical Translation and Rotation (.htr) file 
[Header]	
#Header keywords are followed by a single value 
FileType HTR		#Single word string
DataType HTRS		#Translation followed by rotation and scale data
FileVersion 1		#integer
NumSegments 84		#integer
NumFrames 2		#integer
DataFrameRate 30		#integer, data frame rate in this file
EulerRotationOrder ZYX
CalibrationUnits mm
RotationUnits Degrees
GlobalAxisofGravity Y
BoneLengthAxis Y
ScaleFactor 1.00
[SegmentNames&Hierarchy]
#CHILD	PARENT
MASTER GLOBAL
root MASTER
chest root
L_mid_tent01 root
R_mid_tent01 root
spine01 root
Bip01_Neck chest
L_humerus chest
R_humerus chest
weapon_bone chest
Bip01_Head Bip01_Neck
eye_left_bone Bip01_Head
eye_right_bone Bip01_Head
L_forearm L_humerus
L_front_hand L_forearm
L_weapon_bone L_forearm
L_front_hand01_01 L_front_hand
L_front_hand02_01 L_front_hand
L_front_hand03_01 L_front_hand
L_front_hand01_02 L_front_hand01_01
L_front_hand02_02 L_front_hand02_01
L_front_hand03_02 L_front_hand03_01
R_forearm R_humerus
R_front_hand R_forearm
R_weapon_bone R_forearm
R_front_hand01_01 R_front_hand
R_front_hand02_01 R_front_hand
R_front_hand03_01 R_front_hand
R_front_hand01_02 R_front_hand01_01
R_front_hand02_02 R_front_hand02_01
R_front_hand03_02 R_front_hand03_01
null_rope01_connect L_mid_tent01
Rope1_Seg01 null_rope01_connect
Rope1_Seg02 Rope1_Seg01
Rope1_Seg03 Rope1_Seg02
Rope1_Seg04 Rope1_Seg03
Rope1_Seg05 Rope1_Seg04
Rope1_Seg06 Rope1_Seg05
Rope1_Seg07 Rope1_Seg06
Rope1_Seg09 Rope1_Seg07
L_mid_hand01 Rope1_Seg09
L_mid_hand02 Rope1_Seg09
L_mid_hand03 Rope1_Seg09
null_rope02_connect R_mid_tent01
Rope2_Seg01 null_rope02_connect
Rope2_Seg02 Rope2_Seg01
Rope2_Seg03 Rope2_Seg02
Rope2_Seg04 Rope2_Seg03
Rope2_Seg05 Rope2_Seg04
Rope2_Seg06 Rope2_Seg05
Rope2_Seg07 Rope2_Seg06
Rope2_Seg09 Rope2_Seg07
R_mid_hand01 Rope2_Seg09
R_mid_hand02 Rope2_Seg09
R_mid_hand03 Rope2_Seg09
spine02 spine01
spine03 spine02
pelvis spine03
null_rope03_connect pelvis
null_rope04_connect pelvis
Rope3_Seg01 null_rope03_connect
Rope3_Seg02 Rope3_Seg01
Rope3_Seg03 Rope3_Seg02
Rope3_Seg04 Rope3_Seg03
Rope3_Seg05 Rope3_Seg04
Rope3_Seg06 Rope3_Seg05
Rope3_Seg07 Rope3_Seg06
Rope3_Seg08 Rope3_Seg07
Rope3_Seg09 Rope3_Seg08
R_rear_hand01 Rope3_Seg09
R_rear_hand02 Rope3_Seg09
R_rear_hand03 Rope3_Seg09
Rope4_Seg01 null_rope04_connect
Rope4_Seg02 Rope4_Seg01
Rope4_Seg03 Rope4_Seg02
Rope4_Seg04 Rope4_Seg03
Rope4_Seg05 Rope4_Seg04
Rope4_Seg06 Rope4_Seg05
Rope4_Seg07 Rope4_Seg06
Rope4_Seg08 Rope4_Seg07
Rope4_Seg09 Rope4_Seg08
L_rear_hand01 Rope4_Seg09
L_rear_hand02 Rope4_Seg09
L_rear_hand03 Rope4_Seg09
[BasePosition]
#SegmentName Tx, Ty, Tz, Rx, Ry, Rz, BoneLength
MASTER 0.000000 0.000000 0.000000 -90.000000 0.000000 0.000000 10.000000 
root 0.000000 0.000000 0.000000 0.000000 0.000000 0.000000 10.000000 
chest 0.000000 0.000000 0.000000 0.000000 0.000000 0.000000 10.000000 
L_mid_tent01 0.000000 0.000000 0.000000 0.000000 0.000000 0.000000 10.000000 
R_mid_tent01 0.000000 0.000000 0.000000 0.000000 0.000000 0.000000 10.000000 
spine01 0.000000 0.000000 0.000000 0.000000 0.000000 0.000000 10.000000 
Bip01_Neck 0.000000 0.000000 0.000000 0.000000 0.000000 0.000000 10.000000 
L_humerus 0.000000 0.000000 0.000000 0.000000 0.000000 0.000000 10.000000 
R_humerus 0.000000 0.000000 0.000000 0.000000 0.000000 0.000000 10.000000 
weapon_bone 0.000000 0.000000 0.000000 0.000000 0.000000 0.000000 10.000000 
Bip01_Head 0.000000 0.000000 0.000000 0.000000 0.000000 0.000000 10.000000 
eye_left_bone 0.000000 0.000000 0.000000 0.000000 0.000000 0.000000 10.000000 
eye_right_bone 0.000000 0.000000 0.000000 0.000000 0.000000 0.000000 10.000000 
L_forearm 0.000000 0.000000 0.000000 0.000000 0.000000 0.000000 10.000000 
L_front_hand 0.000000 0.000000 0.000000 0.000000 0.000000 0.000000 10.000000 
L_weapon_bone 0.000000 0.000000 0.000000 0.000000 0.000000 0.000000 10.000000 
L_front_hand01_01 0.000000 0.000000 0.000000 0.000000 0.000000 0.000000 10.000000 
L_front_hand02_01 0.000000 0.000000 0.000000 0.000000 0.000000 0.000000 10.000000 
L_front_hand03_01 0.000000 0.000000 0.000000 0.000000 0.000000 0.000000 10.000000 
L_front_hand01_02 0.000000 0.000000 0.000000 0.000000 0.000000 0.000000 10.000000 
L_front_hand02_02 0.000000 0.000000 0.000000 0.000000 0.000000 0.000000 10.000000 
L_front_hand03_02 0.000000 0.000000 0.000000 0.000000 0.000000 0.000000 10.000000 
R_forearm 0.000000 0.000000 0.000000 0.000000 0.000000 0.000000 10.000000 
R_front_hand 0.000000 0.000000 0.000000 0.000000 0.000000 0.000000 10.000000 
R_weapon_bone 0.000000 0.000000 0.000000 0.000000 0.000000 0.000000 10.000000 
R_front_hand01_01 0.000000 0.000000 0.000000 0.000000 0.000000 0.000000 10.000000 
R_front_hand02_01 0.000000 0.000000 0.000000 0.000000 0.000000 0.000000 10.000000 
R_front_hand03_01 0.000000 0.000000 0.000000 0.000000 0.000000 0.000000 10.000000 
R_front_hand01_02 0.000000 0.000000 0.000000 0.000000 0.000000 0.000000 10.000000 
R_front_hand02_02 0.000000 0.000000 0.000000 0.000000 0.000000 0.000000 10.000000 
R_front_hand03_02 0.000000 0.000000 0.000000 0.000000 0.000000 0.000000 10.000000 
null_rope01_connect 0.000000 0.000000 0.000000 0.000000 0.000000 0.000000 10.000000 
Rope1_Seg01 0.000000 0.000000 0.000000 0.000000 0.000000 0.000000 10.000000 
Rope1_Seg02 0.000000 0.000000 0.000000 0.000000 0.000000 0.000000 10.000000 
Rope1_Seg03 0.000000 0.000000 0.000000 0.000000 0.000000 0.000000 10.000000 
Rope1_Seg04 0.000000 0.000000 0.000000 0.000000 0.000000 0.000000 10.000000 
Rope1_Seg05 0.000000 0.000000 0.000000 0.000000 0.000000 0.000000 10.000000 
Rope1_Seg06 0.000000 0.000000 0.000000 0.000000 0.000000 0.000000 10.000000 
Rope1_Seg07 0.000000 0.000000 0.000000 0.000000 0.000000 0.000000 10.000000 
Rope1_Seg09 0.000000 0.000000 0.000000 0.000000 0.000000 0.000000 10.000000 
L_mid_hand01 0.000000 0.000000 0.000000 0.000000 0.000000 0.000000 10.000000 
L_mid_hand02 0.000000 0.000000 0.000000 0.000000 0.000000 0.000000 10.000000 
L_mid_hand03 0.000000 0.000000 0.000000 0.000000 0.000000 0.000000 10.000000 
null_rope02_connect 0.000000 0.000000 0.000000 0.000000 0.000000 0.000000 10.000000 
Rope2_Seg01 0.000000 0.000000 0.000000 0.000000 0.000000 0.000000 10.000000 
Rope2_Seg02 0.000000 0.000000 0.000000 0.000000 0.000000 0.000000 10.000000 
Rope2_Seg03 0.000000 0.000000 0.000000 0.000000 0.000000 0.000000 10.000000 
Rope2_Seg04 0.000000 0.000000 0.000000 0.000000 0.000000 0.000000 10.000000 
Rope2_Seg05 0.000000 0.000000 0.000000 0.000000 0.000000 0.000000 10.000000 
Rope2_Seg06 0.000000 0.000000 0.000000 0.000000 0.000000 0.000000 10.000000 
Rope2_Seg07 0.000000 0.000000 0.000000 0.000000 0.000000 0.000000 10.000000 
Rope2_Seg09 0.000000 0.000000 0.000000 0.000000 0.000000 0.000000 10.000000 
R_mid_hand01 0.000000 0.000000 0.000000 0.000000 0.000000 0.000000 10.000000 
R_mid_hand02 0.000000 0.000000 0.000000 0.000000 0.000000 0.000000 10.000000 
R_mid_hand03 0.000000 0.000000 0.000000 0.000000 0.000000 0.000000 10.000000 
spine02 0.000000 0.000000 0.000000 0.000000 0.000000 0.000000 10.000000 
spine03 0.000000 0.000000 0.000000 0.000000 0.000000 0.000000 10.000000 
pelvis 0.000000 0.000000 0.000000 0.000000 0.000000 0.000000 10.000000 
null_rope03_connect 0.000000 0.000000 0.000000 0.000000 0.000000 0.000000 10.000000 
null_rope04_connect 0.000000 0.000000 0.000000 0.000000 0.000000 0.000000 10.000000 
Rope3_Seg01 0.000000 0.000000 0.000000 0.000000 0.000000 0.000000 10.000000 
Rope3_Seg02 0.000000 0.000000 0.000000 0.000000 0.000000 0.000000 10.000000 
Rope3_Seg03 0.000000 0.000000 0.000000 0.000000 0.000000 0.000000 10.000000 
Rope3_Seg04 0.000000 0.000000 0.000000 0.000000 0.000000 0.000000 10.000000 
Rope3_Seg05 0.000000 0.000000 0.000000 0.000000 0.000000 0.000000 10.000000 
Rope3_Seg06 0.000000 0.000000 0.000000 0.000000 0.000000 0.000000 10.000000 
Rope3_Seg07 0.000000 0.000000 0.000000 0.000000 0.000000 0.000000 10.000000 
Rope3_Seg08 0.000000 0.000000 0.000000 0.000000 0.000000 0.000000 10.000000 
Rope3_Seg09 0.000000 0.000000 0.000000 0.000000 0.000000 0.000000 10.000000 
R_rear_hand01 0.000000 0.000000 0.000000 0.000000 0.000000 0.000000 10.000000 
R_rear_hand02 0.000000 0.000000 0.000000 0.000000 0.000000 0.000000 10.000000 
R_rear_hand03 0.000000 0.000000 0.000000 0.000000 0.000000 0.000000 10.000000 
Rope4_Seg01 0.000000 0.000000 0.000000 0.000000 0.000000 0.000000 10.000000 
Rope4_Seg02 0.000000 0.000000 0.000000 0.000000 0.000000 0.000000 10.000000 
Rope4_Seg03 0.000000 0.000000 0.000000 0.000000 0.000000 0.000000 10.000000 
Rope4_Seg04 0.000000 0.000000 0.000000 0.000000 0.000000 0.000000 10.000000 
Rope4_Seg05 0.000000 0.000000 0.000000 0.000000 0.000000 0.000000 10.000000 
Rope4_Seg06 0.000000 0.000000 0.000000 0.000000 0.000000 0.000000 10.000000 
Rope4_Seg07 0.000000 0.000000 0.000000 0.000000 0.000000 0.000000 10.000000 
Rope4_Seg08 0.000000 0.000000 0.000000 0.000000 0.000000 0.000000 10.000000 
Rope4_Seg09 0.000000 0.000000 0.000000 0.000000 0.000000 0.000000 10.000000 
L_rear_hand01 0.000000 0.000000 0.000000 0.000000 0.000000 0.000000 10.000000 
L_rear_hand02 0.000000 0.000000 0.000000 0.000000 0.000000 0.000000 10.000000 
L_rear_hand03 0.000000 0.000000 0.000000 0.000000 0.000000 0.000000 10.000000 
#Beginning of Data. Separated by tabs
#Fr	Tx	Ty	Tz	Rx	Ry	Rz	SF
[MASTER]
30 0.000000 0.000000 0.000000 0.000000 -0.002347 -90.000000 0.000000
31 0.000000 0.000000 0.000000 0.000000 -0.002347 -90.000000 0.000000
[root]
30 -14.348906 26.116203 519.415894 -89.090027 -10.451176 179.358398 520.269958
31 -14.348908 32.881577 472.594574 -88.582230 -10.448836 179.361130 473.954315
[chest]
30 -84.512650 -34.090519 0.000000 -0.050368 3.534733 178.794403 91.129311
31 -84.512650 -34.090519 0.000000 2.095165 3.551167 178.890381 91.129311
[L_mid_tent01]
30 27.299511 22.177458 -249.918259 -63.657547 18.686344 33.262245 252.381134
31 27.299511 22.177458 -249.918259 -63.657536 18.686338 33.262241 252.381134
[R_mid_tent01]
30 23.228794 24.509907 226.238495 -131.259216 -15.836094 39.582561 228.744751
31 23.228794 24.509907 226.238495 -131.259216 -15.836094 39.582561 228.744751
[spine01]
30 -0.361383 -0.195265 0.000000 0.001845 0.001451 13.654368 0.410763
31 -0.361383 -0.195265 0.000000 0.001845 0.001451 13.654368 0.410763
[Bip01_Neck]
30 165.484543 71.581718 0.000119 176.643677 -1.657967 43.431911 180.302734
31 165.484543 71.581718 0.000119 176.643677 -1.657967 43.431911 180.302734
[L_humerus]
30 -13.983130 -135.272980 -120.471481 64.506554 65.233803 136.179077 181.680161
31 -13.983130 -135.272980 -120.471481 58.415966 62.446720 130.403854 181.680161
[R_humerus]
30 -13.983309 -135.273102 125.287651 -90.570274 -54.228275 152.093063 184.909012
31 -13.983309 -135.273102 125.287651 -85.020996 -53.206341 146.919556 184.909012
[weapon_bone]
30 235.964890 -300.705902 0.000000 0.000000 -89.951546 -128.212341 382.234833
31 235.964890 -300.705902 0.000000 0.000000 -89.951546 -128.212341 382.234833
[Bip01_Head]
30 128.171936 128.412292 8.333418 1.938589 3.724703 -19.795942 181.623810
31 128.171936 128.412292 8.333418 1.938589 3.724703 -19.795940 181.623810
[eye_left_bone]
30 -24.626970 125.451866 -64.772606 0.000000 -90.000000 -99.840431 143.318359
31 -24.626970 125.451866 -64.772606 0.000000 -90.000000 -99.840431 143.318359
[eye_right_bone]
30 -24.626970 125.451866 64.327362 0.000000 -89.965736 80.156380 143.117676
31 -24.626970 125.451866 64.327362 0.000000 -89.965736 80.156380 143.117676
[L_forearm]
30 322.776093 0.000000 -0.000119 0.000339 -0.002323 -106.617325 322.776093
31 322.776093 0.000000 -0.000119 0.000341 -0.002322 -106.688232 322.776093
[L_front_hand]
30 241.149185 -0.042021 -3.300071 127.796654 -1.837475 -27.420454 241.171753
31 241.149185 -0.042021 -3.300071 126.342751 -1.834664 -27.421574 241.171753
[L_weapon_bone]
30 156.183838 0.000000 0.000000 0.000014 0.000007 0.000001 156.183838
31 156.183838 0.000000 0.000000 0.000014 0.000007 0.000001 156.183838
[L_front_hand01_01]
30 86.095154 20.947098 -0.655860 -0.366594 -0.477154 75.385574 88.609184
31 86.095154 20.947098 -0.655860 -0.366594 -0.477154 75.385574 88.609184
[L_front_hand02_01]
30 86.935165 -11.437475 24.513514 154.399796 -59.883835 -61.369587 91.046425
31 86.935165 -11.437475 24.513514 154.399796 -59.883835 -61.369587 91.046425
[L_front_hand03_01]
30 86.637497 -14.123976 -20.424902 -153.913849 58.118122 -62.702866 90.126129
31 86.637497 -14.123976 -20.424902 -153.913864 58.118134 -62.702885 90.126129
[L_front_hand01_02]
30 71.020905 -0.000179 0.000030 0.000334 -0.002323 -106.379684 71.020905
31 71.020905 -0.000179 0.000030 0.000334 -0.002323 -106.379684 71.020905
[L_front_hand02_02]
30 71.020927 -0.000119 0.000060 0.000334 -0.002323 -106.379684 71.020927
31 71.020927 -0.000119 0.000060 0.000334 -0.002323 -106.379684 71.020927
[L_front_hand03_02]
30 71.020905 -0.000060 0.000060 0.000334 -0.002323 -106.379684 71.020905
31 71.020905 -0.000060 0.000060 0.000334 -0.002323 -106.379684 71.020905
[R_forearm]
30 322.776428 -0.000060 0.000030 0.208984 0.048186 -104.120270 322.776428
31 322.776428 -0.000060 0.000030 0.208957 0.048301 -104.182983 322.776428
[R_front_hand]
30 238.847015 -0.006795 2.210259 -162.429092 -10.645092 -26.312523 238.857239
31 238.847015 -0.006795 2.210259 -160.976120 -10.646969 -26.316925 238.857239
[R_weapon_bone]
30 155.664093 0.002503 -0.000030 0.003487 0.001180 -90.988930 155.664078
31 155.664093 0.002503 -0.000030 0.003487 0.001180 -90.988930 155.664078
[R_front_hand01_01]
30 87.624611 14.231146 22.918642 -154.633499 -59.950619 61.746044 91.683487
31 87.624611 14.231146 22.918642 -154.633499 -59.950619 61.746044 91.683487
[R_front_hand02_01]
30 89.356956 14.367283 -19.491137 154.602661 58.302849 63.744389 92.579636
31 89.356956 14.367283 -19.491137 154.602661 58.302849 63.744389 92.579636
[R_front_hand03_01]
30 87.286232 -22.307278 -0.143439 0.162155 -0.423168 -75.767921 90.091743
31 87.286232 -22.307278 -0.143439 0.162155 -0.423168 -75.767921 90.091743
[R_front_hand01_02]
30 71.020905 0.000060 0.000119 0.002323 -0.000334 106.381714 71.020905
31 71.020905 0.000060 0.000119 0.002323 -0.000334 106.381714 71.020905
[R_front_hand02_02]
30 71.020844 -0.000030 -0.000119 0.002323 -0.000334 106.381714 71.020836
31 71.020844 -0.000030 -0.000119 0.002323 -0.000334 106.381714 71.020836
[R_front_hand03_02]
30 71.020905 0.000000 0.000030 0.002323 -0.000334 106.381714 71.020905
31 71.020905 0.000000 0.000030 0.002323 -0.000334 106.381714 71.020905
[null_rope01_connect]
30 328.732483 0.000000 -0.000238 -166.325592 25.840483 69.049973 328.732483
31 328.732483 0.000000 -0.000238 -166.231216 26.298847 69.278114 328.732483
[Rope1_Seg01]
30 0.000000 0.000000 0.000000 128.509201 -31.577574 -56.611210 0.000000
31 0.000000 0.000000 0.000000 129.429474 -33.337975 -56.028156 0.000000
[Rope1_Seg02]
30 139.999863 -0.000179 0.000000 -3.769327 -4.933817 -2.827810 139.999863
31 139.999863 -0.000179 0.000000 -3.721120 -4.907223 -2.810863 139.999863
[Rope1_Seg03]
30 139.999924 0.000060 -0.000060 -6.472935 -7.926367 -5.311723 139.999924
31 139.999924 0.000060 -0.000060 -6.405254 -7.911860 -5.292143 139.999924
[Rope1_Seg04]
30 139.999924 -0.000060 -0.000119 -12.101381 -14.805854 -11.900764 139.999924
31 139.999924 -0.000060 -0.000119 -12.036860 -14.816384 -12.180181 139.999924
[Rope1_Seg05]
30 139.999832 0.000119 -0.000060 -12.721782 -17.006413 -22.918917 139.999832
31 139.999832 0.000119 -0.000060 -12.667458 -17.540190 -23.553429 139.999832
[Rope1_Seg06]
30 139.999954 0.000119 -0.000060 -5.034900 -3.906423 -33.087547 139.999954
31 139.999954 0.000119 -0.000060 -4.948693 -5.020820 -30.471661 139.999954
[Rope1_Seg07]
30 139.999985 0.000060 0.000000 2.863003 0.393521 -28.950331 139.999985
31 139.999985 0.000060 0.000000 2.450301 -0.332838 -29.864889 139.999985
[Rope1_Seg09]
30 121.602913 0.000119 -0.000089 -89.793175 -1.359789 0.847147 121.602913
31 121.602913 0.000119 -0.000089 -89.793175 -1.359789 0.847147 121.602913
[L_mid_hand01]
30 103.859421 1.038730 8.195221 109.056198 -40.604698 -13.201401 104.187431
31 103.859421 1.038730 8.195221 109.056198 -40.604698 -13.201401 104.187431
[L_mid_hand02]
30 105.572853 -4.139662 -10.864139 -146.713593 31.476528 -37.902313 106.211075
31 105.572853 -4.139662 -10.864139 -146.713593 31.476528 -37.902313 106.211075
[L_mid_hand03]
30 104.641464 17.579376 -3.913581 -14.267234 12.322318 43.898403 106.179977
31 104.641464 17.579376 -3.913581 -14.267233 12.322316 43.898396 106.179977
[null_rope02_connect]
30 328.732849 0.000179 -0.000119 -164.165771 -38.388340 110.396103 328.732849
31 328.732849 0.000179 -0.000119 -164.342651 -37.938038 110.680077 328.732849
[Rope2_Seg01]
30 -0.000038 -0.000114 0.000099 -64.073936 -39.257259 -110.610031 0.000156
31 -0.000038 -0.000114 0.000099 -66.071487 -42.158360 -109.991051 0.000156
[Rope2_Seg02]
30 139.999741 -0.000060 -0.000119 3.968603 2.977956 6.370142 139.999756
31 139.999741 -0.000060 -0.000119 3.701926 2.591262 5.883791 139.999756
[Rope2_Seg03]
30 140.000107 0.000030 0.000000 7.311295 6.251363 11.421680 140.000107
31 140.000107 0.000030 0.000000 6.888046 5.431110 10.585231 140.000107
[Rope2_Seg04]
30 139.999802 0.000000 -0.000060 14.908906 15.714867 24.105394 139.999802
31 139.999802 0.000000 -0.000060 15.044301 14.336595 23.411377 139.999802
[Rope2_Seg05]
30 139.999985 -0.000060 0.000119 10.636135 22.557917 23.279610 139.999985
31 139.999985 -0.000060 0.000119 13.455491 23.937498 26.645138 139.999985
[Rope2_Seg06]
30 139.999893 -0.000030 -0.000119 1.143362 18.199049 10.834175 139.999893
31 139.999893 -0.000030 -0.000119 1.603158 19.084354 11.438455 139.999893
[Rope2_Seg07]
30 139.999893 0.000060 -0.000060 -2.691144 18.059959 10.208467 139.999893
31 139.999893 0.000060 -0.000060 -2.466254 17.855150 9.405704 139.999893
[Rope2_Seg09]
30 121.338966 0.000089 -0.000060 33.793236 -1.359788 -0.847141 121.338966
31 121.338966 0.000089 -0.000060 33.793236 -1.359788 -0.847141 121.338966
[R_mid_hand01]
30 104.680779 11.144459 -10.335981 -37.204079 31.906813 37.576267 105.778534
31 104.680779 11.144459 -10.335981 -37.204082 31.906813 37.576263 105.778534
[R_mid_hand02]
30 104.070427 2.443552 8.231699 70.367462 -42.427391 14.067809 104.424065
31 104.070427 2.443552 8.231699 70.367462 -42.427387 14.067807 104.424065
[R_mid_hand03]
30 106.028137 -11.221827 -5.996406 -169.893616 12.226661 -47.211018 106.788818
31 106.028137 -11.221827 -5.996406 -169.893616 12.226661 -47.211029 106.788818
[spine02]
30 129.756927 0.001550 0.000119 -1.023899 -3.926965 6.770993 129.756927
31 129.756927 0.001550 0.000119 -1.023899 -3.926965 6.770993 129.756927
[spine03]
30 78.613846 0.087372 -4.898873 1.040680 4.146420 4.212376 78.766380
31 78.613846 0.087372 -4.898873 1.040681 4.146420 4.212376 78.766380
[pelvis]
30 169.435242 0.051022 0.000000 0.019518 -0.190233 -10.721436 169.435257
31 169.435242 0.051022 0.000000 0.019518 -0.190233 -10.721436 169.435257
[null_rope03_connect]
30 -1.257226 -2.466202 137.391083 40.770184 89.215157 -52.607418 137.418976
31 -1.257226 -2.466202 137.391083 21.146282 88.832657 -72.228729 137.418976
[null_rope04_connect]
30 -1.259640 -2.480268 -137.844437 40.770184 89.215157 -52.607418 137.872513
31 -1.259640 -2.480268 -137.844437 21.146282 88.832657 -72.228729 137.872513
[Rope3_Seg01]
30 0.000000 0.000000 0.000000 -138.311722 -43.714012 107.340683 0.000000
31 0.000000 0.000000 0.000000 -138.120743 -44.487980 106.756165 0.000000
[Rope3_Seg02]
30 139.999924 -0.000119 0.000060 3.849522 -14.823944 5.896379 139.999924
31 139.999924 -0.000119 0.000060 3.745521 -14.663014 5.634119 139.999924
[Rope3_Seg03]
30 139.999924 -0.000119 0.000119 5.692286 -20.316891 10.505010 139.999924
31 139.999924 -0.000119 0.000119 5.723872 -20.394022 10.173319 139.999924
[Rope3_Seg04]
30 139.999924 0.000119 0.000000 4.604855 -15.261395 11.090347 139.999924
31 139.999924 0.000119 0.000000 4.775351 -15.621811 11.032747 139.999924
[Rope3_Seg05]
30 139.999924 -0.000238 0.000060 4.033342 -14.879753 11.559719 139.999924
31 139.999924 -0.000238 0.000060 4.227511 -15.054803 11.440567 139.999924
[Rope3_Seg06]
30 139.999893 -0.000119 -0.000060 2.665198 -23.353260 21.639038 139.999893
31 139.999893 -0.000119 -0.000060 3.029012 -23.682472 21.575018 139.999893
[Rope3_Seg07]
30 139.999771 0.000060 -0.000119 0.858972 -13.557649 15.698369 139.999771
31 139.999771 0.000060 -0.000119 1.080462 -13.722928 15.844483 139.999771
[Rope3_Seg08]
30 139.999985 -0.000060 0.000000 0.495082 -5.890780 7.375081 139.999985
31 139.999985 -0.000060 0.000000 0.587306 -5.887201 7.419998 139.999985
[Rope3_Seg09]
30 90.185997 -0.000179 -0.000060 89.793228 -1.359877 -0.847183 90.185997
31 90.185997 -0.000179 -0.000060 89.793228 -1.359877 -0.847183 90.185997
[R_rear_hand01]
30 103.366196 -6.073594 -10.757982 -164.755127 19.627697 -40.352161 104.101845
31 103.366196 -6.073594 -10.757982 -164.755127 19.627701 -40.352165 104.101845
[R_rear_hand02]
30 100.509819 12.039542 -7.992327 -30.792652 24.782448 38.141541 101.543350
31 100.509819 12.039542 -7.992327 -30.792645 24.782448 38.141541 101.543350
[R_rear_hand03]
30 101.539970 5.215704 5.435467 82.448349 -41.048256 8.840378 101.819031
31 101.539970 5.215704 5.435467 82.448349 -41.048256 8.840378 101.819031
[Rope4_Seg01]
30 0.000010 0.000038 -0.000114 61.685631 -39.097893 62.401764 0.000121
31 0.000010 0.000038 -0.000114 62.459534 -40.986156 62.375237 0.000121
[Rope4_Seg02]
30 139.999985 0.000060 0.000119 -4.827239 3.292055 -10.615552 139.999985
31 139.999985 0.000060 0.000119 -4.824191 3.224792 -10.562716 139.999985
[Rope4_Seg03]
30 139.999924 0.000000 -0.000238 -7.197018 5.684763 -14.367660 139.999924
31 139.999924 0.000000 -0.000238 -7.453683 5.755699 -14.752583 139.999924
[Rope4_Seg04]
30 139.999985 0.000000 0.000119 -6.499396 6.559577 -12.794926 139.999985
31 139.999985 0.000000 0.000119 -7.335194 7.309154 -14.196210 139.999985
[Rope4_Seg05]
30 139.999802 -0.000060 -0.000119 -5.801999 7.975815 -11.834386 139.999802
31 139.999802 -0.000060 -0.000119 -5.779868 8.108655 -11.815453 139.999802
[Rope4_Seg06]
30 139.999924 0.000000 0.000060 -14.115912 23.527405 -30.680435 139.999924
31 139.999924 0.000000 0.000060 -12.566554 21.933191 -27.739405 139.999924
[Rope4_Seg07]
30 139.999802 0.000000 0.000000 -5.071689 27.299492 -27.616415 139.999802
31 139.999802 0.000000 0.000000 -5.977679 28.357666 -29.064381 139.999802
[Rope4_Seg08]
30 139.999924 0.000000 0.000119 0.384474 8.686994 -8.433558 139.999924
31 139.999924 0.000000 0.000119 0.491359 9.408271 -9.093508 139.999924
[Rope4_Seg09]
30 90.185791 0.000060 0.000060 -135.617828 2.228885 0.850567 90.185791
31 90.185791 0.000060 0.000060 -135.617828 2.228885 0.850567 90.185791
[L_rear_hand01]
30 101.696655 -8.392275 -7.654577 -31.684452 -23.583012 144.025742 102.329041
31 101.696655 -8.392275 -7.654577 -31.684448 -23.583006 144.025742 102.329041
[L_rear_hand02]
30 102.726799 -1.568258 5.773216 82.701553 38.753956 171.553619 102.900848
31 102.726799 -1.568258 5.773216 82.701553 38.753956 171.553619 102.900848
[L_rear_hand03]
30 104.552910 9.721220 -10.420293 -163.975388 -19.004423 -142.009338 105.519653
31 104.552910 9.721220 -10.420293 -163.975403 -19.004421 -142.009338 105.519653
